<?xml version="1.0" encoding="utf-8"?>
<!-- Generator: $$$/GeneralStr/196=Adobe Illustrator 27.6.0, SVG Export Plug-In . SVG Version: 6.00 Build 0)  -->
<svg version="1.1" id="Capa_1" xmlns="http://www.w3.org/2000/svg" xmlns:xlink="http://www.w3.org/1999/xlink" x="0px" y="0px"
	 viewBox="0 0 1000 1000" style="enable-background:new 0 0 1000 1000;" xml:space="preserve">
<style type="text/css">
	.st0{fill:#FDFDFD;}
</style>
<path class="st0" d="M701.57,599.71c0,108.25-87.74,195.99-195.99,195.99s-196.02-87.74-196.02-195.99
	c0-31.52,7.47-61.31,20.69-87.7l0.85-1.7l23.02-46.03l3.47,6.93l124.33,248.6c12.08,25.11,37.77,42.42,67.49,42.42
	c41.34,0,74.86-33.51,74.86-74.88c0-11.44-2.57-22.29-7.16-31.98l-1.14-2.29L491.51,404.21l-50.22-100.42l-55.87,111.69l-3.45-6.89
	l123.61-247.15L680.03,510.3l0.87,1.72C694.12,538.4,701.57,568.18,701.57,599.71"/>
<path class="st0" d="M101.81,910.95c11.95,9.8,17.43,19.19,17.43,30.36c0,8.61-5.08,25.85-31.33,25.85
	c-11.76,0-17.24-5.88-25.87-5.88c0-5.28-2.73-13.12-2.73-18.4c0-1.76,0-4.51,0.78-6.46h1.76c-0.19,1.76-0.4,3.13-0.4,4.89
	c0,3.13,0.4,6.66,1.38,8.61c0.19,0.4,4.7,5.69,9.2,8.82c2.54,1.97,7.45,5.48,16.65,5.48c11.76,0,21.54-8.02,21.54-20.16
	c0-12.54-10.77-21.75-17.62-27.63l-8.04-6.85c-11.55-9.8-17.83-15.28-17.83-26.05c0-9.2,7.83-20.18,22.34-20.18
	c6.07,0,9.2,1.18,20.56,5.49c1.18,3.72,1.37,5.48,1.37,9.2c0,1.76,0,4.89-1.37,9.4h-1.95c0.19-1.38,0.97-5.88,0.97-8.42
	c0-0.79-6.66-12.53-18.8-12.53c-8.23,0-14.89,5.29-14.89,12.92c0,4.11,0.99,10.19,19,25.07L101.81,910.95z"/>
<path class="st0" d="M128.29,965.02c0.97,0,1.96,0.19,2.94,0.19c0.97,0,2.92-0.19,3.13-0.4c0.19-0.19,2.94-2.14,3.13-2.54
	c1.57-2.35,3.72-5.48,4.51-7.64l27.22-72.07h2.16l27.21,68.75c3.15,7.83,4.32,9.98,6.47,13.12c0.21,0.38,2.94,0.59,3.92,0.59
	c0.97,0,3.13-0.59,3.72-0.59v2.15c-1.18,0.21-2.35,0.39-3.91,0.39c-1.76,0-7.45-0.77-11.76-0.77c-4.51,0-8.42,0.77-11.17,0.77
	c-1.18,0-2.14,0-3.53-0.19v-2.16c1.18,0.19,2.54,0.4,3.53,0.4c0.78,0,2.16-0.21,2.94-0.4c0.98-0.19,2.35-1.76,2.35-4.31
	c0-1.95-0.59-3.53-0.98-4.51l-10.57-26.25h-24.48l-8.63,23.12c-0.97,2.75-1.37,5.1-1.37,6.46c0,2.73,1.18,6.07,4.89,6.07
	c1.37,0,2.75-0.19,4.12-0.19v1.77c-0.98,0.19-2.16,0.19-3.34,0.19c-3.13,0-7.63-0.39-10.57-0.39c-3.73,0-6.66,0.39-8.63,0.39
	c-1.77,0-2.35,0-3.32-0.19V965.02z M178.43,926.43l-11.36-28.2l-10.39,28.2H178.43z"/>
<path class="st0" d="M226.46,899.59c-5.86-13.12-6.66-13.12-12.33-13.52v-1.75c0.78-0.2,1.76-0.4,2.54-0.4
	c1.77,0,6.26,0.78,10.19,0.78c2.35,0,7.43-0.78,8.82-0.78c1.76,0,3.72,0.4,6.07,0.78v1.76c-1.37-0.19-3.53-0.39-4.51-0.39
	c-3.32,0-4.1,1.96-4.1,4.32c0,1.76,0.38,2.35,1.75,5.67l26.64,58.37l22.13-52.49c1.77-3.93,1.96-7.44,1.96-9.6
	c0-2.94-1.76-6.07-2.73-6.27c-0.59,0-1.76-0.19-3.13-0.19c-1.17,0-2.16,0.19-3.14,0.19v-1.56c0.4-0.19,2.35-0.59,3.34-0.59
	c1.76,0,6.66,0.78,8.23,0.78c1.77,0,6.85-0.97,8.8-0.97c1.18,0,2.56,0,4.12,0.19v1.95c-0.78-0.19-1.37-0.19-1.95-0.19
	c-0.98,0-5.48,0-9.79,10.18l-30.17,72.27h-2.14L226.46,899.59z"/>
<path class="st0" d="M310.53,964.62c1.38,0.19,2.94,0.19,4.32,0.19c1.37,0,2.54,0,3.91-0.19c2.54-2.54,3.53-3.91,3.53-12.53v-54.45
	c0-6.86-0.78-8.63-4.12-11.57c-1.56-0.19-2.94-0.19-4.5-0.19c-1.38,0-2.56,0-4.11,0.19v-1.75c1.95-0.4,3.32-0.59,6.26-0.59
	c1.76,0,9.8,0.78,11.36,0.78c1.97,0,10.19-0.78,11.76-0.78c1.57,0,3.72,0.38,5.1,0.59v1.75c-1.76-0.19-2.16-0.19-4.32-0.19
	c-4.89,0-7.44,3.34-7.44,8.23v61.69c0,4.32,2.15,7.25,3.72,8.82c1.37,0.19,2.54,0.4,3.93,0.4c1.36,0,2.73-0.21,4.11-0.4v1.96
	c-1.18,0.4-1.38,0.4-3.34,0.4c-2.35,0-12.14-0.78-14.11-0.78c-1.95,0-10.57,0.78-12.33,0.78c-0.98,0-2.75-0.19-3.73-0.4V964.62z"/>
<path class="st0" d="M353.08,965.02c0.97,0,1.96,0.19,2.94,0.19c0.97,0,2.92-0.19,3.13-0.4c0.19-0.19,2.94-2.14,3.13-2.54
	c1.57-2.35,3.72-5.48,4.51-7.64L394,882.56h2.16l27.21,68.75c3.14,7.83,4.32,9.98,6.47,13.12c0.21,0.38,2.94,0.59,3.92,0.59
	c0.97,0,3.13-0.59,3.72-0.59v2.15c-1.18,0.21-2.35,0.39-3.91,0.39c-1.77,0-7.45-0.77-11.76-0.77c-4.51,0-8.42,0.77-11.17,0.77
	c-1.17,0-2.14,0-3.53-0.19v-2.16c1.17,0.19,2.54,0.4,3.53,0.4c0.78,0,2.16-0.21,2.94-0.4c0.99-0.19,2.35-1.76,2.35-4.31
	c0-1.95-0.59-3.53-0.98-4.51l-10.57-26.25h-24.48l-8.63,23.12c-0.97,2.75-1.37,5.1-1.37,6.46c0,2.73,1.18,6.07,4.89,6.07
	c1.37,0,2.75-0.19,4.12-0.19v1.77c-0.98,0.19-2.16,0.19-3.34,0.19c-3.13,0-7.63-0.39-10.57-0.39c-3.73,0-6.66,0.39-8.63,0.39
	c-1.76,0-2.35,0-3.32-0.19V965.02z M403.22,926.43l-11.36-28.2l-10.39,28.2H403.22z"/>
<path class="st0" d="M539.92,883.73c-13.31,0-19.19,0.97-23.69,0.97c-5.88,0-9.21-0.97-14.11-0.97c-1.57,0-2.35,0-4.31,0.38v2.16
	c1.37,0,2.15-0.4,4.11-0.4c1.37,0,2.54,0,3.53,0.19c1.56,0.4,3.72,3.34,3.72,7.26v0.52c0,0.03-0.01,0.04-0.01,0.07v60.24
	c-0.04,6.39-1.39,8.53-2.93,9.87c-1.17,0.78-4.11,0.98-4.89,0.98c-1.17,0-2.94-0.21-3.92-0.4v1.96c0.98,0.21,2.94,0.4,4.89,0.4
	c2.16,0,9.6-0.59,13.52-0.59c3.72,0,20.18,0.59,26.43,0.59c9.8,0,19.19-1.57,28.01-9.01c10.77-9.21,15.28-21.16,15.28-32.31
	C585.56,914.48,578.32,883.73,539.92,883.73 M537.18,963.64c-18.02,0-18.02-2.92-18.02-7.63v-31.93c20.16,0,24.86,0.59,27.21,9.99
	h1.37v-2.75c0-1.37-2.92-8.8-3.13-10.56c-0.38-2.35,0-6.09-0.59-8.44c-0.38-1.75-0.97-2.34-1.56-3.13c-0.4,0.21-0.98,0.21-1.38,0.4
	c0.59,1.56,1.17,3.13,1.17,4.7c0,5.67-5.88,5.67-11.16,5.67h-11.94v-27.8c0-4.32,0-4.7,17.81-4.7c30.76,0,37.61,26.84,37.61,41.72
	C574.59,963.64,544.83,963.64,537.18,963.64"/>
<path class="st0" d="M698.7,968.15c-36.24,0-54.46-24.08-54.46-50.92c0-27.82,23.7-54.07,54.07-54.07
	c31.34,0,53.48,20.18,53.48,51.91C751.78,937.01,733.55,968.15,698.7,968.15 M696.54,866.5c-23.9,0-41.53,20.16-41.53,47.58
	c0,21.56,14.11,50.54,45.06,50.54c24.67,0,40.94-18.02,40.94-42.31C741,902.73,730.02,866.5,696.54,866.5"/>
<path class="st0" d="M775.52,894.89c0-4.5-1.37-7.05-3.13-8.23c-1.77-0.98-5.09-0.98-6.07-0.98c-0.59,0-1.57,0-2.54,0.19v-1.76
	c0.78-0.19,1.56-0.38,2.54-0.38c2.75,0,9.2,1.18,12.72,0.97l9.99-0.59c3.92-0.19,9.99-0.59,11.95-0.59c5.1,0,24.88,0.2,24.88,19.99
	c0,11.74-9.4,19-24.48,20.37v0.38c1.56,0.79,2.35,1.17,3.72,3.34l18.02,27.42c5.48,8.23,11.17,10.58,16.26,10.58
	c1.38,0,3.33-0.59,4.11-1.18c0.21,0.38,0.21,1.18,0.4,1.76c-1.57,0.59-4.7,1.37-11.17,1.37c-5.48,0-12.14,0-19.78-11.95
	l-16.45-26.06c-0.79-1.18-3.92-4.89-5.29-5.48c-0.98-0.4-5.48-0.99-6.28-1.37v27.8c0,8.04,0.21,14.89,7.05,14.89
	c1.37,0,2.54-0.19,3.92-0.19v1.95c-2.55,0.4-2.94,0.4-3.92,0.4c-0.78,0-1.95-0.19-3.52-0.4c-1.37-0.19-3.13-0.38-7.25-0.59
	c-1.96,0-4.89,0.21-7.05,0.4c-1.95,0.19-3.32,0.39-4.5,0.39c-2.35,0-3.93,0-5.5-0.21v-1.95c1.39,0.19,2.94,0.19,3.93,0.19
	c1.57,0,2.94-0.19,4.7-0.78c2.74-3.13,2.74-4.31,2.74-9.2V894.89z M784.93,919.38c3.13,0.98,5.48,1.76,10.18,1.76
	c11.36,0,20.37-5.29,20.37-16.84c0-17.05-17.43-17.05-25.66-17.05c-2.54,0-4.89,0.79-4.89,4.12V919.38z"/>
<path class="st0" d="M894.85,882.56c31.35,0,45.83,20.37,45.83,38.97c0,19.59-12.13,46.62-45.83,46.62
	c-31.33,0-45.83-20.37-45.83-38.97C849.02,909.59,861.17,882.56,894.85,882.56 M897.21,964.62c18.6,0,33.49-12.14,33.49-34.48
	c0-21.74-16.06-43.68-39.16-43.68c-18.6,0-33.49,12.14-33.49,34.48C858.04,942.68,874.09,964.62,897.21,964.62"/>
</svg>
